<svg xmlns="http://www.w3.org/2000/svg" width="78" height="20" viewBox="0 0 78 20" fill="none">
  <path d="M63.8851 17.2022C65.6676 18.9322 68.086 20 70.7557 20C73.6178 20 76.1889 18.7702 78 16.8142L71.1342 9.89097L63.8851 17.2006V17.2022Z" fill="#8AB7FF"/>
  <path d="M70.7557 0C68.1401 0 65.7693 1.02774 63.9964 2.69681L71.1342 9.89418L77.8982 3.07359C76.0935 1.18326 73.5638 0.00160333 70.7557 0.00160333V0Z" fill="#8AB7FF"/>
  <path d="M63.998 2.69681C62.0581 4.5214 60.8386 7.1156 60.8386 10.0016C60.8386 12.8876 62.0104 15.384 63.8851 17.2038L71.1342 9.89418L63.9964 2.69681L63.998 2.69681Z" fill="#0059FF"/>
  <path d="M42.2222 5.83614V0.00320667H30.2444H22.7107V5.83614V8.05836V13.7951V19.8974H30.2444V13.7951H37.778V8.05836H30.2444V5.83614H42.2222Z" fill="#0059FF"/>
  <path d="M30.2444 13.7951H22.7107V19.8958H30.2444V13.7951Z" fill="#8AB7FF"/>
  <path d="M30.2444 5.83614H22.7107V8.05836H30.2444V5.83614Z" fill="#8AB7FF"/>
  <path d="M42.2222 0.00320667H30.2444V5.83614H42.2222V0.00320667Z" fill="#8AB7FF"/>
  <path d="M37.778 8.05836H30.2444V13.7967H37.778L37.778 8.05836Z" fill="#8AB7FF"/>
  <path d="M19.5179 0.0689434H6.60349C2.96545 0.0689434 0.0159005 3.03511 0 6.70034H12.916C16.554 6.70034 19.5036 9.66651 19.5179 13.3317V0.0689434Z" fill="#8AB7FF"/>
  <path d="M0 6.72599C0 6.71637 0 6.70835 0 6.69873V6.72599Z" fill="#8091E6"/>
  <path d="M0 6.72599V19.9615H12.9685C16.5858 19.9615 19.5179 17.005 19.5179 13.3574C19.5179 13.3478 19.5179 13.3397 19.5179 13.3301H6.55102C2.93365 13.3301 0 10.3736 0 6.72599Z" fill="#8AB7FF"/>
  <path d="M6.54942 13.3301H19.5163C19.502 9.6649 16.5524 6.69873 12.9144 6.69873H0C0 6.70835 0 6.71637 0 6.72599C0 10.3736 2.93206 13.3301 6.54942 13.3301Z" fill="#0059FF"/>
  <path d="M39.9739 19.8974H49.7829V0.00320667L39.9739 19.8974Z" fill="#8AB7FF"/>
  <path d="M49.7829 19.8974H59.5936L49.7829 0.00320667V19.8974Z" fill="#0059FF"/>
</svg>