 <svg
            xmlns="http://www.w3.org/2000/svg"
            width="42"
            height="42"
            viewBox="0 0 42 42"
            fill="none"
          >
            <path
              d="M34.0939 29.211C33.621 30.3133 33.0368 31.3644 32.3503 32.3481C31.4333 33.6579 30.6802 34.563 30.1029 35.0668C29.2064 35.8899 28.2432 36.3134 27.2135 36.3373C26.4757 36.3373 25.5843 36.1273 24.546 35.7003C23.5043 35.2751 22.5479 35.0668 21.6719 35.0668C20.7548 35.0668 19.7712 35.2751 18.7175 35.7003C17.6655 36.1273 16.8151 36.351 16.1644 36.3715C15.1791 36.4142 14.1937 35.9804 13.2118 35.0668C12.585 34.5203 11.8012 33.581 10.8602 32.2524C9.85265 30.8367 9.02439 29.1888 8.37546 27.3154C7.68041 25.2883 7.33203 23.3278 7.33203 21.4288C7.33203 19.2549 7.80166 17.3781 8.74262 15.807C9.45431 14.5731 10.4718 13.5433 11.697 12.8167C12.9052 12.0921 14.2844 11.7019 15.6931 11.6862C16.4787 11.6862 17.5084 11.9287 18.7841 12.4069C20.0598 12.885 20.8795 13.1275 21.2364 13.1275C21.5062 13.1275 22.413 12.8423 23.9568 12.2771C25.4135 11.7528 26.6431 11.5359 27.6506 11.6213C30.383 11.8416 32.434 12.9175 33.7985 14.8575C31.3564 16.3381 30.1491 18.4095 30.173 21.0685C30.1935 23.14 30.9466 24.8631 32.422 26.231C33.0744 26.8552 33.8355 27.3547 34.6677 27.7047C34.4867 28.229 34.2954 28.7294 34.0939 29.211ZM27.8317 4.56666C27.8317 6.18901 27.2374 7.70548 26.0573 9.10752C24.6297 10.7743 22.9048 11.7391 21.0349 11.5872C21.0104 11.3831 20.9984 11.1778 20.999 10.9724C20.999 9.41321 21.6753 7.74646 22.8826 6.38198C23.4838 5.69206 24.2488 5.11655 25.1761 4.65888C26.1017 4.20804 26.9761 3.95871 27.7992 3.91602C27.8214 4.13461 27.8317 4.35149 27.8317 4.56666Z"
              fill="white"
            />
          </svg>