<svg
            xmlns="http://www.w3.org/2000/svg"
            width="42"
            height="42"
            viewBox="0 0 42 42"
            fill="none"
          >
            <path
              d="M35.1126 18.1113H20.8873V24.0067H29.0737C28.3117 27.7531 25.1223 29.9056 20.8873 29.9056C19.7023 29.9076 18.5286 29.6757 17.4334 29.2231C16.3382 28.7705 15.3432 28.1061 14.5053 27.2681C13.6675 26.4301 13.0033 25.4349 12.5509 24.3397C12.0985 23.2444 11.8668 22.0706 11.869 20.8856C11.867 19.7007 12.0989 18.5271 12.5514 17.4321C13.0039 16.337 13.6681 15.342 14.5059 14.5042C15.3437 13.6664 16.3387 13.0022 17.4338 12.5497C18.5288 12.0972 19.7025 11.8653 20.8873 11.8673C23.0381 11.8673 24.9822 12.6309 26.5077 13.8797L30.9494 9.43977C28.2434 7.08057 24.7738 5.62507 20.8873 5.62507C18.8814 5.6192 16.8941 6.00997 15.0398 6.77489C13.1854 7.53982 11.5006 8.6638 10.0822 10.0822C8.66381 11.5006 7.53982 13.1854 6.7749 15.0398C6.00997 16.8941 5.61921 18.8814 5.62507 20.8873C5.61898 22.8933 6.00959 24.8807 6.77444 26.7351C7.53928 28.5896 8.66325 30.2745 10.0817 31.6929C11.5001 33.1114 13.1851 34.2354 15.0395 35.0002C16.894 35.765 18.8813 36.1557 20.8873 36.1496C28.5184 36.1496 35.4577 30.5992 35.4577 20.8873C35.4577 19.9853 35.3193 19.0133 35.1126 18.1113Z"
              fill="white"
            />
          </svg>