<svg width="48" height="48" viewBox="0 0 48 48" fill="none" xmlns="http://www.w3.org/2000/svg">
<g id="YouTube">
<path id="Vector" d="M43.164 12.372C42.704 10.652 41.348 9.296 39.628 8.836C36.508 8 24 8 24 8C24 8 11.492 8 8.372 8.836C6.652 9.296 5.296 10.652 4.836 12.372C4 15.492 4 24 4 24C4 24 4 32.508 4.836 35.628C5.296 37.348 6.652 38.704 8.372 39.164C11.492 40 24 40 24 40C24 40 36.508 40 39.628 39.164C41.35 38.704 42.704 37.348 43.164 35.628C44 32.508 44 24 44 24C44 24 44 15.492 43.164 12.372ZM20 30.928V17.072L32 24L20 30.928Z" fill="#1A1A1A"/>
</g>
</svg>
