<svg width="71" height="70" viewBox="0 0 71 70" fill="none" xmlns="http://www.w3.org/2000/svg">
<path id="Vector" d="M59.1683 0H11.8331C5.29598 0 0 5.29419 0 11.8291V47.3178C0 53.854 5.29598 59.1468 11.8331 59.1468H20.4711L31.5651 68.4917C32.6898 69.4968 34.1098 70 35.5298 70C36.9498 70 38.2811 69.5273 39.3461 68.5513L50.7355 59.1468H59.1669C65.7054 59.1468 71 53.8527 71 47.3178V11.8291C71 5.2928 65.704 0 59.1669 0H59.1683ZM45.8555 17.7443C48.3115 17.7443 50.2931 19.7253 50.2931 22.1804C50.2931 24.6355 48.3115 26.6165 45.8555 26.6165C43.3996 26.6165 41.4179 24.6355 41.4179 22.1804C41.4179 19.7253 43.3996 17.7443 45.8555 17.7443ZM25.1473 17.7443C27.6032 17.7443 29.5848 19.7253 29.5848 22.1804C29.5848 24.6355 27.6032 26.6165 25.1473 26.6165C22.6913 26.6165 20.7097 24.6355 20.7097 22.1804C20.7097 19.7253 22.6913 17.7443 25.1473 17.7443ZM52.2762 37.7067C51.9808 37.9729 44.7031 44.3608 35.5021 44.3608C26.301 44.3608 19.0539 37.9729 18.728 37.7067C17.5146 36.6129 17.3967 34.7498 18.4909 33.5368C19.585 32.3238 21.4488 32.206 22.6622 33.2997C22.7218 33.3593 28.5794 38.4747 35.4716 38.4747C42.3637 38.4747 48.2518 33.358 48.3115 33.2997C49.5249 32.206 51.4178 32.3238 52.4828 33.5368C53.5769 34.7498 53.4591 36.6129 52.2456 37.7067H52.2748H52.2762Z" fill="#337AFF"/>
</svg>
